<svg id="visual" viewBox="0 0 900 600" width="900" height="600" xmlns="http://www.w3.org/2000/svg" xmlns:xlink="http://www.w3.org/1999/xlink" version="1.1"><rect x="0" y="0" width="900" height="600" fill="#001220"></rect><path d="M0 362L21.5 376.3C43 390.7 86 419.3 128.8 425C171.7 430.7 214.3 413.3 257.2 412.8C300 412.3 343 428.7 385.8 435.5C428.7 442.3 471.3 439.7 514.2 430C557 420.3 600 403.7 642.8 404C685.7 404.3 728.3 421.7 771.2 431.3C814 441 857 443 878.5 444L900 445L900 601L878.5 601C857 601 814 601 771.2 601C728.3 601 685.7 601 642.8 601C600 601 557 601 514.2 601C471.3 601 428.7 601 385.8 601C343 601 300 601 257.2 601C214.3 601 171.7 601 128.8 601C86 601 43 601 21.5 601L0 601Z" fill="#fa7268"></path><path d="M0 393L21.5 395.7C43 398.3 86 403.7 128.8 414.3C171.7 425 214.3 441 257.2 450.3C300 459.7 343 462.3 385.8 457.2C428.7 452 471.3 439 514.2 434.8C557 430.7 600 435.3 642.8 439.8C685.7 444.3 728.3 448.7 771.2 444.3C814 440 857 427 878.5 420.5L900 414L900 601L878.5 601C857 601 814 601 771.2 601C728.3 601 685.7 601 642.8 601C600 601 557 601 514.2 601C471.3 601 428.7 601 385.8 601C343 601 300 601 257.2 601C214.3 601 171.7 601 128.8 601C86 601 43 601 21.5 601L0 601Z" fill="#ef5f67"></path><path d="M0 494L21.5 491.3C43 488.7 86 483.3 128.8 482C171.7 480.7 214.3 483.3 257.2 486.8C300 490.3 343 494.7 385.8 494.7C428.7 494.7 471.3 490.3 514.2 480C557 469.7 600 453.3 642.8 456.5C685.7 459.7 728.3 482.3 771.2 486.7C814 491 857 477 878.5 470L900 463L900 601L878.5 601C857 601 814 601 771.2 601C728.3 601 685.7 601 642.8 601C600 601 557 601 514.2 601C471.3 601 428.7 601 385.8 601C343 601 300 601 257.2 601C214.3 601 171.7 601 128.8 601C86 601 43 601 21.5 601L0 601Z" fill="#e34c67"></path><path d="M0 542L21.5 539.2C43 536.3 86 530.7 128.8 529.3C171.7 528 214.3 531 257.2 528.3C300 525.7 343 517.3 385.8 515.7C428.7 514 471.3 519 514.2 514.7C557 510.3 600 496.7 642.8 490C685.7 483.3 728.3 483.7 771.2 489C814 494.3 857 504.7 878.5 509.8L900 515L900 601L878.5 601C857 601 814 601 771.2 601C728.3 601 685.7 601 642.8 601C600 601 557 601 514.2 601C471.3 601 428.7 601 385.8 601C343 601 300 601 257.2 601C214.3 601 171.7 601 128.8 601C86 601 43 601 21.5 601L0 601Z" fill="#d53867"></path><path d="M0 558L21.5 560.3C43 562.7 86 567.3 128.8 565.3C171.7 563.3 214.3 554.7 257.2 554.3C300 554 343 562 385.8 563.8C428.7 565.7 471.3 561.3 514.2 559C557 556.7 600 556.3 642.8 552.8C685.7 549.3 728.3 542.7 771.2 545.2C814 547.7 857 559.3 878.5 565.2L900 571L900 601L878.5 601C857 601 814 601 771.2 601C728.3 601 685.7 601 642.8 601C600 601 557 601 514.2 601C471.3 601 428.7 601 385.8 601C343 601 300 601 257.2 601C214.3 601 171.7 601 128.8 601C86 601 43 601 21.5 601L0 601Z" fill="#c62368"></path></svg>